<?xml version="1.0" encoding="utf-8"?>
<!-- Generator: Adobe Illustrator 27.6.1, SVG Export Plug-In . SVG Version: 6.00 Build 0)  -->
<svg version="1.1" id="Layer_1" xmlns="http://www.w3.org/2000/svg" xmlns:xlink="http://www.w3.org/1999/xlink" x="0px" y="0px"
	 viewBox="0 0 20 20" style="enable-background:new 0 0 20 20;" xml:space="preserve">
<style type="text/css">
	.st0{fill-rule:evenodd;clip-rule:evenodd;fill:#FFFFFF;}
</style>
<path class="st0" d="M10.9,1.6L1.7,0.2c-0.4-0.1-0.9,0-1.2,0.3C0.2,0.8,0,1.2,0,1.6v17.6C0,19.6,0.4,20,0.8,20h2.7v-4.4
	c0-0.8,0.6-1.5,1.5-1.5h2.1c0.8,0,1.5,0.6,1.5,1.5V20h3.5V3C12.1,2.3,11.6,1.7,10.9,1.6z M4.6,12.3H3.3c-0.3,0-0.6-0.3-0.6-0.6
	C2.7,11.3,3,11,3.3,11h1.3c0.3,0,0.6,0.3,0.6,0.6C5.2,12,4.9,12.3,4.6,12.3z M3.3,9.8h1.3c0.3,0,0.6-0.3,0.6-0.6S4.9,8.5,4.6,8.5
	H3.3C3,8.5,2.7,8.8,2.7,9.2S3,9.8,3.3,9.8z M4.6,7.3H3.3C3,7.3,2.7,7,2.7,6.7C2.7,6.3,3,6,3.3,6h1.3c0.3,0,0.6,0.3,0.6,0.6
	C5.2,7,4.9,7.3,4.6,7.3z M3.3,4.8h1.3c0.3,0,0.6-0.3,0.6-0.6c0-0.3-0.3-0.6-0.6-0.6H3.3C3,3.5,2.7,3.8,2.7,4.2
	C2.7,4.5,3,4.8,3.3,4.8z M8.7,12.3H7.5c-0.3,0-0.6-0.3-0.6-0.6c0-0.3,0.3-0.6,0.6-0.6h1.3c0.3,0,0.6,0.3,0.6,0.6
	C9.4,12,9.1,12.3,8.7,12.3z M7.5,9.8h1.3c0.3,0,0.6-0.3,0.6-0.6S9.1,8.5,8.7,8.5H7.5c-0.3,0-0.6,0.3-0.6,0.6S7.2,9.8,7.5,9.8z
	 M8.7,7.3H7.5C7.2,7.3,6.9,7,6.9,6.7C6.9,6.3,7.2,6,7.5,6h1.3c0.3,0,0.6,0.3,0.6,0.6C9.4,7,9.1,7.3,8.7,7.3z M7.5,4.8h1.3
	c0.3,0,0.6-0.3,0.6-0.6c0-0.3-0.3-0.6-0.6-0.6H7.5c-0.3,0-0.6,0.3-0.6,0.6C6.9,4.5,7.2,4.8,7.5,4.8z"/>
<path class="st0" d="M12.9,7.8L18.9,9c0.7,0.2,1.1,0.7,1.1,1.4v8.1c0,0.8-0.7,1.5-1.5,1.5h-5.6V7.8z M15.6,17.5h1.2
	c0.3,0,0.6-0.3,0.6-0.6s-0.3-0.6-0.6-0.6h-1.2c-0.3,0-0.6,0.3-0.6,0.6S15.3,17.5,15.6,17.5z M16.9,15h-1.2c-0.3,0-0.6-0.3-0.6-0.6
	s0.3-0.6,0.6-0.6h1.2c0.3,0,0.6,0.3,0.6,0.6S17.2,15,16.9,15z M15.6,12.5h1.2c0.3,0,0.6-0.3,0.6-0.6s-0.3-0.6-0.6-0.6h-1.2
	c-0.3,0-0.6,0.3-0.6,0.6S15.3,12.5,15.6,12.5z"/>
</svg>
