<?xml version="1.0" encoding="utf-8"?>
<!-- Generator: Adobe Illustrator 27.6.1, SVG Export Plug-In . SVG Version: 6.00 Build 0)  -->
<svg version="1.1" id="Layer_1" xmlns="http://www.w3.org/2000/svg" xmlns:xlink="http://www.w3.org/1999/xlink" x="0px" y="0px"
	 viewBox="0 0 20 20" style="enable-background:new 0 0 20 20;" xml:space="preserve">
<style type="text/css">
	.st0{fill:#FFFFFF;}
</style>
<path class="st0" d="M13.5,6.5C12.6,5.6,11.4,5,10,5S7.4,5.5,6.5,6.5C5.6,7.4,5,8.6,5,10s0.6,2.6,1.5,3.5S8.6,15,10,15
	s2.6-0.6,3.5-1.5S15,11.3,15,10C15,8.6,14.5,7.4,13.5,6.5z"/>
<path class="st0" d="M10,3.4c0.4,0,0.7-0.3,0.7-0.7v-2C10.7,0.3,10.4,0,10,0S9.3,0.3,9.3,0.7v2C9.3,3.1,9.6,3.4,10,3.4z"/>
<path class="st0" d="M15.6,5.3l1.5-1.5c0.3-0.3,0.3-0.7,0-1s-0.7-0.3-1,0l-1.5,1.5c-0.3,0.3-0.3,0.7,0,1C14.9,5.6,15.3,5.6,15.6,5.3
	z"/>
<path class="st0" d="M19.3,9.3h-2c-0.4,0-0.7,0.3-0.7,0.7s0.3,0.7,0.7,0.7h2c0.4,0,0.7-0.3,0.7-0.7S19.7,9.3,19.3,9.3z"/>
<path class="st0" d="M15.6,14.7c-0.3-0.3-0.7-0.3-1,0s-0.3,0.7,0,1l1.5,1.5c0.3,0.3,0.7,0.3,1,0s0.3-0.7,0-1L15.6,14.7z"/>
<path class="st0" d="M10,16.6c-0.4,0-0.7,0.3-0.7,0.7v2c0,0.4,0.3,0.7,0.7,0.7s0.7-0.3,0.7-0.7v-2C10.7,16.9,10.4,16.6,10,16.6z"/>
<path class="st0" d="M4.4,14.7l-1.5,1.5c-0.3,0.3-0.3,0.7,0,1s0.7,0.3,1,0l1.5-1.5c0.3-0.3,0.3-0.7,0-1C5.1,14.4,4.7,14.4,4.4,14.7z
	"/>
<path class="st0" d="M3.4,10c0-0.4-0.3-0.7-0.7-0.7h-2C0.3,9.3,0,9.6,0,10s0.3,0.7,0.7,0.7h2C3.1,10.7,3.4,10.4,3.4,10z"/>
<path class="st0" d="M4.4,5.3c0.3,0.3,0.7,0.3,1,0s0.3-0.7,0-1L3.9,2.9c-0.3-0.3-0.7-0.3-1,0s-0.3,0.7,0,1L4.4,5.3z"/>
</svg>
